<svg version="1.1" id="Layer_1" xmlns="http://www.w3.org/2000/svg" xmlns:xlink="http://www.w3.org/1999/xlink" x="0px" y="0px"
	 width="100%" viewBox="0 0 200 50" enable-background="new 0 0 200 50" xml:space="preserve">
<path fill="#FFFFFF" opacity="1.000000" stroke="none" 
	d="
M147.000000,51.000000 
	C98.000015,51.000000 49.500023,51.000000 1.000026,51.000000 
	C1.000017,34.333347 1.000017,17.666698 1.000009,1.000035 
	C67.666634,1.000023 134.333267,1.000023 200.999939,1.000012 
	C200.999954,17.666632 200.999954,34.333263 200.999969,50.999947 
	C183.166672,51.000000 165.333328,51.000000 147.000000,51.000000 
M137.256912,17.025854 
	C136.504272,17.072634 135.751617,17.119411 134.257675,17.012020 
	C133.505524,17.063362 132.753372,17.114704 131.121155,17.025177 
	C128.746628,17.071936 126.372093,17.118692 123.173904,17.011988 
	C121.783035,17.063324 120.392166,17.114662 118.257355,17.022928 
	C117.504471,17.070620 116.751587,17.118309 115.151924,17.012033 
	C113.435066,17.063351 111.718201,17.114668 109.208038,17.022404 
	C108.138260,17.070269 107.068474,17.118132 105.120995,17.012070 
	C102.748215,17.063160 100.375427,17.114252 97.208763,17.025295 
	C96.138840,17.072262 95.068909,17.119228 93.080925,17.011906 
	C88.720940,17.063343 84.360954,17.114780 79.103188,17.024790 
	C76.068359,17.071859 73.033531,17.118929 69.152466,17.012024 
	C67.435837,17.063141 65.719215,17.114258 63.113541,17.020800 
	C60.408607,17.069208 57.703671,17.117617 54.257095,17.012066 
	C53.505154,17.063385 52.753216,17.114704 51.257713,17.019226 
	C50.504707,17.068150 49.751701,17.117073 48.133987,17.012009 
	C46.089764,17.063337 44.045540,17.114664 41.257767,17.019220 
	C40.504791,17.068178 39.751812,17.117136 38.499691,17.023825 
	C38.333328,17.071331 38.166969,17.118835 37.185436,17.025837 
	C33.281715,17.302965 29.377995,17.580095 25.003378,17.890656 
	C25.003378,22.369568 24.869879,27.451168 25.137674,32.511532 
	C25.181194,33.333897 27.001991,34.062214 28.847555,34.987980 
	C30.564199,34.936848 32.280846,34.885715 34.790874,34.974781 
	C35.860802,34.927753 36.930733,34.880726 38.790710,34.988007 
	C39.859501,34.936932 40.928291,34.885857 42.862038,34.983627 
	C44.908958,34.933994 46.955879,34.884361 49.849911,34.987995 
	C51.566170,34.936665 53.282429,34.885334 55.887482,34.979134 
	C58.592579,34.930996 61.297680,34.882858 64.850258,34.987995 
	C66.566406,34.936665 68.282547,34.885334 70.899307,34.974926 
	C73.933197,34.927879 76.967087,34.880836 80.890129,34.988033 
	C83.593086,34.936623 86.296043,34.885212 89.743172,34.974533 
	C90.496284,34.927883 91.249390,34.881233 92.880287,34.987949 
	C95.252647,34.936848 97.625008,34.885750 100.790779,34.974792 
	C101.860733,34.927757 102.930679,34.880718 104.660736,34.987141 
	C105.106743,34.936077 105.552757,34.885014 106.742683,34.977062 
	C107.495552,34.929375 108.248428,34.881687 109.847534,34.987980 
	C111.564171,34.936855 113.280815,34.885731 115.791077,34.977669 
	C116.861137,34.929768 117.931206,34.881870 119.742508,34.987949 
	C120.494240,34.936787 121.245979,34.885624 122.877975,34.974899 
	C125.252800,34.928116 127.627632,34.881336 130.827011,34.987972 
	C132.217667,34.936584 133.608337,34.885193 135.742874,34.974522 
	C136.495667,34.927673 137.248474,34.880825 138.742767,34.987934 
	C139.494751,34.936615 140.246750,34.885296 141.887512,34.979134 
	C144.592606,34.930996 147.297684,34.882858 150.850250,34.987995 
	C152.566391,34.936665 154.282547,34.885338 156.899307,34.974926 
	C159.933197,34.927879 162.967087,34.880833 166.661133,34.987183 
	C167.107101,34.936050 167.553055,34.884918 168.896332,34.975018 
	C171.146408,34.981899 173.450485,35.272003 175.620422,34.858433 
	C176.507721,34.689316 177.104858,32.997688 177.987961,31.087475 
	C177.936646,27.392086 177.885330,23.696695 177.971039,19.142534 
	C177.223480,18.430016 176.522263,17.173843 175.719818,17.105459 
	C173.166489,16.887869 170.575470,17.112469 167.112869,17.011515 
	C164.408920,17.063076 161.704956,17.114635 158.257126,17.025473 
	C157.504318,17.072315 156.751511,17.119158 155.152451,17.012022 
	C153.435837,17.063139 151.719208,17.114256 149.113556,17.020802 
	C146.408615,17.069208 143.703674,17.117615 140.257065,17.012064 
	C139.505127,17.063383 138.753204,17.114702 137.256912,17.025854 
z"/>
<path fill="#000000" opacity="1.000000" stroke="none" 
	d="
M80.000969,17.166216 
	C84.360954,17.114780 88.720940,17.063343 93.527954,17.466824 
	C92.316330,23.559095 90.657661,29.196449 88.999001,34.833801 
	C86.296043,34.885212 83.593086,34.936623 80.442947,34.491528 
	C77.793358,32.997032 75.590958,31.999044 73.003746,30.826687 
	C73.075386,29.953564 73.190208,28.553967 73.299850,27.217560 
	C75.417870,27.020151 77.165947,26.857222 78.914024,26.694292 
	C79.018456,26.166193 79.122887,25.638094 79.227325,25.109995 
	C77.912506,24.738211 76.422295,24.633802 75.332542,23.918926 
	C74.257484,23.213694 73.587692,21.890684 73.047348,21.220051 
	C75.665588,18.629023 80.112129,22.674704 80.000969,17.166216 
z"/>
<path fill="#0095FF" opacity="1.000000" stroke="none" 
	d="
M150.002777,34.834721 
	C147.297684,34.882858 144.592606,34.930996 141.443527,34.449966 
	C140.999283,28.335871 140.999008,22.750946 140.998734,17.166023 
	C143.703674,17.117615 146.408615,17.069208 149.716110,17.423889 
	C151.203705,22.515438 152.257339,27.183886 152.818481,31.910795 
	C152.919525,32.762020 150.993118,33.853931 150.002777,34.834721 
z"/>
<path fill="#0095FF" opacity="1.000000" stroke="none" 
	d="
M54.998737,17.166025 
	C57.703671,17.117617 60.408607,17.069208 63.716103,17.423893 
	C65.203720,22.515444 66.257324,27.183895 66.818481,31.910809 
	C66.919533,32.762028 64.993126,33.853935 64.002777,34.834721 
	C61.297680,34.882858 58.592579,34.930996 55.443512,34.449986 
	C54.999275,28.335899 54.999008,22.750963 54.998737,17.166025 
z"/>
<path fill="#0095FF" opacity="1.000000" stroke="none" 
	d="
M109.001297,34.834000 
	C108.248428,34.881687 107.495552,34.929375 106.371124,34.448914 
	C105.999268,28.335838 105.998978,22.750917 105.998695,17.165995 
	C107.068474,17.118132 108.138260,17.070269 109.613358,17.453457 
	C111.766701,21.084158 113.514740,24.283806 115.998703,28.830515 
	C115.998703,23.938330 115.998703,20.552164 115.998703,17.166000 
	C116.751587,17.118309 117.504471,17.070620 118.628906,17.551052 
	C119.000725,23.664106 119.000999,29.249041 119.001266,34.833973 
	C117.931206,34.881870 116.861137,34.929768 115.253189,34.587723 
	C113.027573,30.980906 111.339828,27.764038 109.001297,23.306742 
	C109.001297,28.064468 109.001297,31.449234 109.001297,34.834000 
z"/>
<path fill="#0095FF" opacity="1.000000" stroke="none" 
	d="
M38.000660,34.833698 
	C36.930733,34.880726 35.860802,34.927753 34.258129,34.594631 
	C32.327164,32.188339 30.928942,30.162193 29.530720,28.136049 
	C29.165911,28.200441 28.801102,28.264835 28.436291,28.329227 
	C28.291294,30.497484 28.146296,32.665741 28.001297,34.834000 
	C27.001991,34.062214 25.181194,33.333897 25.137674,32.511532 
	C24.869879,27.451168 25.003378,22.369568 25.003378,17.890656 
	C29.377995,17.580095 33.281715,17.302965 37.462402,17.399654 
	C35.759434,20.093754 33.779499,22.414032 31.944571,24.564381 
	C34.104645,28.227222 36.052654,31.530460 38.000660,34.833698 
z"/>
<path fill="#0095FF" opacity="1.000000" stroke="none" 
	d="
M89.371086,34.904167 
	C90.657661,29.196449 92.316330,23.559095 93.986984,17.543968 
	C95.068909,17.119228 96.138840,17.072262 97.762573,17.430088 
	C100.211136,23.501148 102.105888,29.167414 104.000641,34.833679 
	C102.930679,34.880718 101.860733,34.927757 100.239563,34.572071 
	C98.419800,32.782135 97.151253,31.394917 95.882713,30.007702 
	C94.900230,31.047579 93.880341,32.055511 92.952347,33.141930 
	C92.540154,33.624500 92.313423,34.265499 92.002502,34.834583 
	C91.249390,34.881233 90.496284,34.927883 89.371086,34.904167 
z"/>
<path fill="#000000" opacity="1.000000" stroke="none" 
	d="
M167.999023,34.833786 
	C167.553055,34.884918 167.107101,34.936050 166.328400,34.489914 
	C163.822571,33.007431 161.649460,32.022217 159.001007,30.821493 
	C159.001007,26.670485 159.001007,21.918341 159.001007,17.166195 
	C161.704956,17.114635 164.408920,17.063076 167.556244,17.545490 
	C167.999420,23.664238 167.999222,29.249012 167.999023,34.833786 
z"/>
<path fill="#0095FF" opacity="1.000000" stroke="none" 
	d="
M49.002800,34.834732 
	C46.955879,34.884361 44.908958,34.933994 42.240013,34.582909 
	C40.745407,32.466637 39.293156,30.807718 39.118866,29.023933 
	C38.735939,25.104826 38.999306,21.122572 38.998837,17.166096 
	C39.751812,17.117136 40.504791,17.068178 41.629112,17.542229 
	C42.018875,21.369810 41.603390,24.761492 42.241817,27.941589 
	C42.553226,29.492779 44.829826,30.649443 46.216885,31.984688 
	C47.143688,30.516159 48.686386,29.120789 48.871292,27.564135 
	C49.277863,24.141338 48.998230,20.637032 48.998695,17.165997 
	C49.751701,17.117073 50.504707,17.068150 51.629082,17.547604 
	C52.000275,21.508554 52.363609,24.994249 51.872505,28.355089 
	C51.543491,30.606670 50.001846,32.681057 49.002800,34.834732 
z"/>
<path fill="#0095FF" opacity="1.000000" stroke="none" 
	d="
M168.447678,34.904404 
	C167.999222,29.249012 167.999420,23.664238 167.999329,17.622839 
	C170.575470,17.112469 173.166489,16.887869 175.719818,17.105459 
	C176.522263,17.173843 177.223480,18.430016 177.467865,19.571503 
	C175.037689,20.000471 173.110672,20.000471 171.183655,20.000471 
	C170.935303,20.551004 170.686966,21.101536 170.438614,21.652069 
	C171.506027,22.434202 172.532700,23.281694 173.652695,23.979435 
	C174.699173,24.631388 175.844681,25.124418 176.946594,25.687397 
	C175.719696,26.126694 174.506165,26.610361 173.260071,26.985941 
	C172.666641,27.164801 172.011215,27.137964 171.238571,27.219669 
	C171.238571,28.834620 171.238571,30.234829 171.238571,31.998697 
	C173.588654,31.998697 175.711319,31.998697 177.834000,31.998699 
	C177.104858,32.997688 176.507721,34.689316 175.620422,34.858433 
	C173.450485,35.272003 171.146408,34.981899 168.447678,34.904404 
z"/>
<path fill="#0095FF" opacity="1.000000" stroke="none" 
	d="
M79.552078,17.095503 
	C80.112129,22.674704 75.665588,18.629023 73.047348,21.220051 
	C73.587692,21.890684 74.257484,23.213694 75.332542,23.918926 
	C76.422295,24.633802 77.912506,24.738211 79.227325,25.109995 
	C79.122887,25.638094 79.018456,26.166193 78.914024,26.694292 
	C77.165947,26.857222 75.417870,27.020151 73.299850,27.217560 
	C73.190208,28.553967 73.075386,29.953564 73.003746,30.826687 
	C75.590958,31.999044 77.793358,32.997032 79.998367,34.414406 
	C76.967087,34.880836 73.933197,34.927879 70.449425,34.447884 
	C69.999260,28.335892 69.998978,22.750946 69.998703,17.166000 
	C73.033531,17.118929 76.068359,17.071859 79.552078,17.095503 
z"/>
<path fill="#0095FF" opacity="1.000000" stroke="none" 
	d="
M130.002457,34.834553 
	C127.627632,34.881336 125.252800,34.928116 122.323235,34.609348 
	C122.440857,33.475414 122.978973,32.300247 123.813972,32.024689 
	C125.470825,31.477917 127.291382,31.427195 129.044281,31.171463 
	C129.121964,30.696140 129.199646,30.220816 129.277328,29.745493 
	C128.057236,28.808931 126.917854,27.735279 125.602356,26.960768 
	C121.133812,24.329884 120.664871,21.684460 123.997559,17.165449 
	C126.372093,17.118692 128.746628,17.071936 131.547668,17.475304 
	C129.591476,19.208202 127.208771,20.490971 124.469429,21.965744 
	C133.046021,26.829706 134.037918,29.379379 130.002457,34.834553 
z"/>
<path fill="#000000" opacity="1.000000" stroke="none" 
	d="
M48.566341,17.089003 
	C48.998230,20.637032 49.277863,24.141338 48.871292,27.564135 
	C48.686386,29.120789 47.143688,30.516159 46.216885,31.984688 
	C44.829826,30.649443 42.553226,29.492779 42.241817,27.941589 
	C41.603390,24.761492 42.018875,21.369810 42.000889,17.615616 
	C44.045540,17.114664 46.089764,17.063337 48.566341,17.089003 
z"/>
<path fill="#000000" opacity="1.000000" stroke="none" 
	d="
M104.330688,34.910408 
	C102.105888,29.167414 100.211136,23.501148 98.159515,17.500113 
	C100.375427,17.114252 102.748215,17.063160 105.559845,17.089031 
	C105.998978,22.750917 105.999268,28.335838 105.999161,34.377357 
	C105.552757,34.885014 105.106743,34.936077 104.330688,34.910408 
z"/>
<path fill="#000000" opacity="1.000000" stroke="none" 
	d="
M123.585732,17.088718 
	C120.664871,21.684460 121.133812,24.329884 125.602356,26.960768 
	C126.917854,27.735279 128.057236,28.808931 129.277328,29.745493 
	C129.199646,30.220816 129.121964,30.696140 129.044281,31.171463 
	C127.291382,31.427195 125.470825,31.477917 123.813972,32.024689 
	C122.978973,32.300247 122.440857,33.475414 121.883102,34.539131 
	C121.245979,34.885624 120.494240,34.936787 119.371887,34.910961 
	C119.000999,29.249041 119.000725,23.664106 119.000870,17.622587 
	C120.392166,17.114662 121.783035,17.063324 123.585732,17.088718 
z"/>
<path fill="#000000" opacity="1.000000" stroke="none" 
	d="
M130.414734,34.911263 
	C134.037918,29.379379 133.046021,26.829706 124.469429,21.965744 
	C127.208771,20.490971 129.591476,19.208202 131.987701,17.545740 
	C132.753372,17.114704 133.505524,17.063362 134.628647,17.545729 
	C134.999405,23.664227 134.999191,29.249016 134.998993,34.833805 
	C133.608337,34.885193 132.217667,34.936584 130.414734,34.911263 
z"/>
<path fill="#000000" opacity="1.000000" stroke="none" 
	d="
M38.749264,17.094959 
	C38.999306,21.122572 38.735939,25.104826 39.118866,29.023933 
	C39.293156,30.807718 40.745407,32.466637 41.807533,34.508488 
	C40.928291,34.885857 39.859501,34.936932 38.395683,34.910851 
	C36.052654,31.530460 34.104645,28.227222 31.944571,24.564381 
	C33.779499,22.414032 35.759434,20.093754 37.869987,17.469908 
	C38.166969,17.118835 38.333328,17.071331 38.749264,17.094959 
z"/>
<path fill="#0095FF" opacity="1.000000" stroke="none" 
	d="
M158.629059,17.095835 
	C159.001007,21.918341 159.001007,26.670485 159.001007,30.821493 
	C161.649460,32.022217 163.822571,33.007431 165.998322,34.413216 
	C162.967087,34.880833 159.933197,34.927879 156.449432,34.447876 
	C155.999268,28.335886 155.998993,22.750944 155.998703,17.166000 
	C156.751511,17.119158 157.504318,17.072315 158.629059,17.095835 
z"/>
<path fill="#000000" opacity="1.000000" stroke="none" 
	d="
M155.575577,17.089012 
	C155.998993,22.750944 155.999268,28.335886 155.999115,34.377419 
	C154.282547,34.885338 152.566391,34.936665 150.426514,34.911354 
	C150.993118,33.853931 152.919525,32.762020 152.818481,31.910795 
	C152.257339,27.183886 151.203705,22.515438 150.160629,17.496174 
	C151.719208,17.114256 153.435837,17.063139 155.575577,17.089012 
z"/>
<path fill="#000000" opacity="1.000000" stroke="none" 
	d="
M69.575584,17.089012 
	C69.998978,22.750946 69.999260,28.335892 69.999115,34.377419 
	C68.282547,34.885334 66.566406,34.936665 64.426514,34.911358 
	C64.993126,33.853935 66.919533,32.762028 66.818481,31.910809 
	C66.257324,27.183895 65.203720,22.515444 64.160629,17.496180 
	C65.719215,17.114258 67.435837,17.063141 69.575584,17.089012 
z"/>
<path fill="#000000" opacity="1.000000" stroke="none" 
	d="
M177.910980,31.543087 
	C175.711319,31.998697 173.588654,31.998697 171.238571,31.998697 
	C171.238571,30.234829 171.238571,28.834620 171.238571,27.219669 
	C172.011215,27.137964 172.666641,27.164801 173.260071,26.985941 
	C174.506165,26.610361 175.719696,26.126694 176.946594,25.687397 
	C175.844681,25.124418 174.699173,24.631388 173.652695,23.979435 
	C172.532700,23.281694 171.506027,22.434202 170.438614,21.652069 
	C170.686966,21.101536 170.935303,20.551004 171.183655,20.000471 
	C173.110672,20.000471 175.037689,20.000471 177.399353,20.000889 
	C177.885330,23.696695 177.936646,27.392086 177.910980,31.543087 
z"/>
<path fill="#000000" opacity="1.000000" stroke="none" 
	d="
M49.426357,34.911362 
	C50.001846,32.681057 51.543491,30.606670 51.872505,28.355089 
	C52.363609,24.994249 52.000275,21.508554 52.000862,17.621000 
	C52.753216,17.114704 53.505154,17.063385 54.627914,17.089046 
	C54.999008,22.750963 54.999275,28.335899 54.999115,34.377422 
	C53.282429,34.885334 51.566170,34.936665 49.426357,34.911362 
z"/>
<path fill="#0095FF" opacity="1.000000" stroke="none" 
	d="
M135.370941,34.904163 
	C134.999191,29.249016 134.999405,23.664227 134.999298,17.622814 
	C135.751617,17.119411 136.504272,17.072634 137.628693,17.552528 
	C138.000732,23.664129 138.001007,29.249052 138.001266,34.833977 
	C137.248474,34.880825 136.495667,34.927673 135.370941,34.904163 
z"/>
<path fill="#000000" opacity="1.000000" stroke="none" 
	d="
M138.372009,34.910957 
	C138.001007,29.249052 138.000732,23.664129 138.000854,17.622612 
	C138.753204,17.114702 139.505127,17.063383 140.627899,17.089043 
	C140.999008,22.750946 140.999283,28.335871 140.999146,34.377388 
	C140.246750,34.885296 139.494751,34.936615 138.372009,34.910957 
z"/>
<path fill="#000000" opacity="1.000000" stroke="none" 
	d="
M115.575317,17.089016 
	C115.998703,20.552164 115.998703,23.938330 115.998703,28.830515 
	C113.514740,24.283806 111.766701,21.084158 110.010010,17.525249 
	C111.718201,17.114668 113.435066,17.063351 115.575317,17.089016 
z"/>
<path fill="#000000" opacity="1.000000" stroke="none" 
	d="
M109.424416,34.910988 
	C109.001297,31.449234 109.001297,28.064468 109.001297,23.306742 
	C111.339828,27.764038 113.027573,30.980906 114.856384,34.516190 
	C113.280815,34.885731 111.564171,34.936855 109.424416,34.910988 
z"/>
<path fill="#000000" opacity="1.000000" stroke="none" 
	d="
M92.441391,34.911266 
	C92.313423,34.265499 92.540154,33.624500 92.952347,33.141930 
	C93.880341,32.055511 94.900230,31.047579 95.882713,30.007702 
	C97.151253,31.394917 98.419800,32.782135 99.842850,34.501999 
	C97.625008,34.885750 95.252647,34.936848 92.441391,34.911266 
z"/>
<path fill="#000000" opacity="1.000000" stroke="none" 
	d="
M28.424427,34.910988 
	C28.146296,32.665741 28.291294,30.497484 28.436291,28.329227 
	C28.801102,28.264835 29.165911,28.200441 29.530720,28.136049 
	C30.928942,30.162193 32.327164,32.188339 33.861435,34.524532 
	C32.280846,34.885715 30.564199,34.936848 28.424427,34.910988 
z"/>
</svg>